<?xml version="1.0" standalone="no"?>
<!DOCTYPE svg PUBLIC "-//W3C//DTD SVG 20010904//EN"
 "http://www.w3.org/TR/2001/REC-SVG-20010904/DTD/svg10.dtd">
<svg version="1.0" xmlns="http://www.w3.org/2000/svg"
 width="1320.000000pt" height="1000.000000pt" viewBox="0 0 1320.000000 1000.000000"
 preserveAspectRatio="xMidYMid meet">

<g transform="translate(0.000000,1000.000000) scale(0.100000,-0.100000)"
fill="#000000" stroke="none">
<path d="M6010 8585 c-155 -22 -295 -53 -408 -92 -384 -129 -685 -309 -956
-572 -274 -267 -465 -556 -609 -921 -52 -131 -63 -170 -50 -170 5 0 28 50 52
111 24 61 45 109 47 107 2 -2 -15 -55 -37 -118 -91 -258 -139 -518 -139 -754
0 -77 2 -137 4 -135 2 2 9 65 15 139 28 334 73 532 193 853 6 15 12 26 14 24
2 -2 -12 -48 -32 -103 -84 -234 -133 -489 -139 -729 l-4 -160 10 140 c25 370
112 691 273 998 133 255 269 436 462 616 373 346 743 530 1269 627 82 16 144
19 340 17 215 -1 254 -4 370 -27 252 -51 476 -125 655 -217 201 -103 453 -286
583 -425 22 -24 44 -41 48 -38 5 2 42 -39 84 -93 212 -272 372 -561 444 -803
54 -178 83 -314 75 -347 -5 -20 -4 -24 6 -18 10 6 12 -1 6 -34 -5 -31 -3 -41
5 -35 9 5 10 -7 5 -47 -3 -30 -3 -49 1 -42 5 6 8 -89 8 -212 0 -123 -3 -218
-6 -213 -4 5 -10 -32 -14 -84 -12 -164 -15 -181 -39 -283 -93 -384 -262 -709
-540 -1034 -98 -116 -82 -107 67 39 53 52 97 91 97 87 0 -16 -64 -103 -142
-193 -121 -141 -308 -298 -499 -419 -41 -26 -65 -45 -54 -41 30 9 -10 -19
-118 -81 -50 -29 -88 -53 -84 -53 16 0 248 122 329 173 280 177 544 435 717
701 28 43 48 83 44 89 -3 6 -1 7 5 3 11 -7 17 6 13 27 -1 5 3 6 8 3 5 -3 12 1
15 10 4 9 2 13 -5 8 -8 -4 -7 0 0 15 7 11 16 21 22 21 6 0 7 5 4 10 -3 6 -2
10 4 10 6 0 15 10 22 21 8 15 8 19 0 15 -8 -5 -8 0 0 18 7 14 16 23 22 19 6
-3 7 -1 4 4 -4 6 12 50 34 98 98 209 194 572 219 825 10 110 8 522 -4 635 -12
108 13 -19 30 -155 28 -231 4 -607 -55 -855 -11 -44 -17 -83 -15 -87 17 -28
-204 -576 -227 -562 -5 3 -6 -1 -4 -8 3 -8 -2 -22 -11 -33 -8 -11 -13 -14 -9
-7 11 21 -4 13 -16 -9 -8 -16 -8 -20 1 -14 9 6 9 2 1 -14 -7 -11 -14 -21 -17
-21 -3 0 -2 5 2 12 4 7 3 8 -4 4 -6 -4 -8 -14 -5 -23 4 -10 2 -14 -4 -10 -6 4
-10 -1 -9 -11 0 -9 -4 -16 -10 -15 -7 1 -11 -5 -10 -15 0 -9 -4 -16 -10 -15
-7 1 -11 -5 -10 -15 0 -9 -5 -16 -11 -15 -7 2 -12 0 -12 -5 3 -20 -2 -32 -13
-26 -6 4 -8 3 -5 -3 12 -19 -124 -186 -267 -328 -252 -250 -508 -418 -836
-548 -273 -108 -502 -154 -840 -167 l-205 -8 225 3 c231 4 339 15 511 56 50
11 93 19 95 16 3 -3 -52 -19 -123 -35 -132 -32 -281 -55 -438 -68 -85 -7 -87
-8 -45 -16 91 -15 362 17 555 67 713 182 1302 657 1628 1310 128 257 203 513
243 824 13 107 15 184 11 370 -7 313 -41 527 -124 786 -149 462 -493 920 -922
1224 -298 213 -665 365 -1037 432 -153 28 -574 36 -724 14z m637 -31 c-3 -3
-12 -4 -19 -1 -8 3 -5 6 6 6 11 1 17 -2 13 -5z m76 -11 c-7 -2 -19 -2 -25 0
-7 3 -2 5 12 5 14 0 19 -2 13 -5z m50 -10 c-7 -2 -19 -2 -25 0 -7 3 -2 5 12 5
14 0 19 -2 13 -5z m50 -10 c-7 -2 -19 -2 -25 0 -7 3 -2 5 12 5 14 0 19 -2 13
-5z m117 -23 c89 -24 222 -71 217 -77 -2 -2 -24 4 -48 13 -24 8 -96 31 -159
49 -124 37 -132 48 -10 15z m270 -95 c14 -8 21 -14 15 -14 -5 0 -21 6 -35 14
-14 8 -20 14 -15 14 6 0 21 -6 35 -14z m90 -40 c25 -13 41 -24 35 -24 -5 0
-30 11 -55 24 -25 13 -40 24 -35 24 6 0 30 -11 55 -24z m190 -100 c0 -3 -27 8
-60 25 -33 17 -60 33 -60 35 0 3 27 -8 60 -25 33 -17 60 -33 60 -35z m50 -31
c0 -2 -9 0 -20 6 -11 6 -20 13 -20 16 0 2 9 0 20 -6 11 -6 20 -13 20 -16z
m202 -132 c135 -101 257 -209 289 -255 12 -17 -20 9 -72 59 -101 97 -219 192
-336 269 -40 26 -73 50 -73 52 0 10 85 -45 192 -125z m539 -549 c13 -16 12
-17 -3 -4 -10 7 -18 15 -18 17 0 8 8 3 21 -13z m114 -177 c73 -125 144 -278
194 -420 40 -115 92 -302 90 -328 0 -7 -16 45 -35 116 -58 216 -152 440 -274
654 -23 39 -39 72 -36 72 3 0 30 -42 61 -94z m322 -758 c-3 -7 -5 -2 -5 12 0
14 2 19 5 13 2 -7 2 -19 0 -25z m-30 -40 c-3 -7 -5 -2 -5 12 0 14 2 19 5 13 2
-7 2 -19 0 -25z m10 -60 c-3 -7 -5 -2 -5 12 0 14 2 19 5 13 2 -7 2 -19 0 -25z
m30 -125 c-3 -10 -5 -4 -5 12 0 17 2 24 5 18 2 -7 2 -21 0 -30z m-110 -155
c-3 -7 -5 -2 -5 12 0 14 2 19 5 13 2 -7 2 -19 0 -25z m154 -650 c-14 -72 -53
-210 -57 -205 -2 2 10 56 26 121 17 65 30 127 30 139 0 11 3 17 6 14 4 -4 1
-35 -5 -69z m-245 -667 c-15 -28 -28 -51 -31 -51 -3 0 7 25 22 55 15 30 29 53
31 51 2 -2 -8 -27 -22 -55z m-66 -118 c-174 -310 -514 -664 -805 -838 -79 -47
-117 -68 -81 -43 388 265 666 542 858 856 59 94 75 110 28 25z m-1253 -1054
c-23 -14 -187 -69 -201 -68 -11 0 191 76 209 77 6 1 2 -3 -8 -9z"/>
<path d="M6797 7780 c-257 -24 -585 -129 -927 -298 -391 -192 -605 -402 -670
-658 -36 -142 -21 -267 50 -403 78 -148 191 -278 533 -611 l227 -222 -97 -50
c-401 -206 -671 -426 -771 -628 -34 -70 -37 -81 -37 -165 0 -77 4 -98 27 -148
95 -203 407 -324 742 -288 295 32 507 154 604 346 41 83 54 231 30 350 -24
120 -153 329 -308 497 -60 66 -61 68 -38 77 13 5 59 23 103 41 245 99 741 261
1100 360 178 50 198 57 190 70 -14 23 -102 6 -351 -65 -385 -110 -924 -285
-1104 -358 -20 -8 -577 540 -649 638 -229 313 -211 578 57 839 144 141 299
243 554 366 240 115 499 194 743 225 266 34 443 -12 496 -128 25 -56 25 -158
0 -212 -24 -53 -105 -127 -164 -150 -67 -25 -78 -75 -16 -75 59 0 169 73 219
145 59 85 77 222 40 303 -44 98 -100 144 -220 180 -78 23 -240 33 -363 22z
m-695 -2296 c140 -152 255 -322 295 -436 87 -248 -5 -445 -262 -564 -113 -52
-212 -75 -357 -81 -277 -12 -479 66 -563 218 -26 47 -30 64 -30 129 0 64 5 85
34 145 49 102 204 253 376 367 127 84 440 268 456 268 5 0 28 -21 51 -46z"/>
<path d="M8743 6290 c0 -25 2 -35 4 -22 2 12 2 32 0 45 -2 12 -4 2 -4 -23z"/>
<path d="M4090 5047 c0 -11 59 -127 65 -127 7 0 -44 113 -56 125 -5 5 -9 6 -9
2z"/>
<path d="M4190 4855 c124 -225 373 -526 560 -675 62 -49 40 -26 -70 76 -167
154 -302 318 -434 529 -80 127 -103 156 -56 70z"/>
<path d="M7840 4368 c-30 -28 -41 -41 -25 -30 28 19 94 83 84 82 -2 -1 -29
-24 -59 -52z"/>
<path d="M4825 4120 c10 -11 20 -20 23 -20 3 0 -3 9 -13 20 -10 11 -20 20 -23
20 -3 0 3 -9 13 -20z"/>
<path d="M4866 4089 c15 -25 257 -174 394 -243 149 -76 302 -140 355 -150 l30
-6 -30 11 c-263 100 -514 228 -698 358 -32 23 -55 36 -51 30z"/>
<path d="M5680 3675 c19 -7 44 -14 55 -14 11 0 0 7 -25 15 -57 17 -77 17 -30
-1z"/>
<path d="M6798 3683 c7 -3 16 -2 19 1 4 3 -2 6 -13 5 -11 0 -14 -3 -6 -6z"/>
<path d="M6743 3673 c9 -2 23 -2 30 0 6 3 -1 5 -18 5 -16 0 -22 -2 -12 -5z"/>
<path d="M6673 3663 c9 -2 25 -2 35 0 9 3 1 5 -18 5 -19 0 -27 -2 -17 -5z"/>
<path d="M6603 3653 c9 -2 25 -2 35 0 9 3 1 5 -18 5 -19 0 -27 -2 -17 -5z"/>
<path d="M6478 3643 c18 -2 45 -2 60 0 15 2 0 4 -33 4 -33 0 -45 -2 -27 -4z"/>
<path d="M2079 3007 c-51 -34 -79 -82 -79 -135 0 -38 5 -50 38 -82 30 -30 56
-44 127 -65 117 -36 140 -48 155 -84 28 -67 -23 -121 -115 -121 -60 0 -107 26
-130 70 -15 28 -20 31 -48 24 -45 -9 -47 -11 -36 -44 22 -63 126 -120 218
-120 126 0 215 90 195 195 -10 57 -66 96 -188 133 -114 35 -136 52 -136 108 0
92 172 112 225 26 18 -29 23 -32 55 -26 19 3 37 7 39 9 2 2 -5 21 -16 42 -30
58 -105 93 -198 93 -58 0 -78 -4 -106 -23z"/>
<path d="M2795 3007 c-99 -48 -148 -129 -153 -254 -4 -70 -1 -89 20 -135 50
-108 136 -162 258 -163 127 0 218 61 261 174 27 73 23 195 -8 256 -49 94 -123
137 -243 142 -74 4 -91 1 -135 -20z m240 -78 c96 -65 116 -253 37 -343 -44
-49 -157 -72 -234 -47 -73 24 -121 106 -120 206 0 98 36 158 117 197 55 26
151 20 200 -13z"/>
<path d="M3496 3008 c-3 -13 -12 -126 -21 -253 -8 -126 -18 -245 -21 -262 -5
-32 -4 -33 34 -33 l39 0 6 58 c3 31 11 130 18 220 7 89 15 162 19 162 3 0 44
-99 90 -221 79 -211 84 -220 108 -217 23 3 32 22 111 230 99 263 91 264 110
-17 16 -223 14 -215 56 -215 43 0 42 -21 15 315 -11 138 -20 251 -20 253 0 1
-24 2 -52 2 l-53 0 -80 -211 c-44 -116 -82 -212 -85 -214 -3 -2 -41 92 -85
208 l-80 212 -52 3 c-48 3 -53 1 -57 -20z"/>
<path d="M4511 3008 c-5 -13 -49 -133 -99 -268 -50 -135 -93 -253 -97 -262 -6
-15 -1 -18 33 -18 l40 0 22 65 22 66 130 -3 131 -3 22 -60 c22 -59 23 -60 64
-63 22 -2 41 -2 41 0 0 2 -47 129 -103 283 l-103 280 -47 3 c-41 3 -48 0 -56
-20z m103 -202 c25 -71 46 -132 46 -137 0 -5 -45 -9 -101 -9 -77 0 -100 3 -96
13 2 6 21 59 42 117 53 148 55 153 60 149 2 -3 24 -62 49 -133z"/>
<path d="M5002 3022 c2 -5 42 -72 91 -149 l87 -140 0 -136 0 -137 40 0 40 0 0
134 0 135 95 150 94 151 -42 0 -42 0 -65 -107 c-36 -59 -70 -108 -75 -110 -6
-1 -21 16 -34 40 -13 23 -43 72 -67 110 -42 65 -45 67 -85 67 -22 0 -39 -4
-37 -8z"/>
<path d="M5626 3018 c4 -7 47 -77 96 -154 l88 -142 0 -131 0 -131 35 0 35 0 0
132 0 131 81 131 c45 72 89 141 97 154 14 22 14 22 -29 22 l-44 -1 -65 -109
c-36 -60 -69 -108 -75 -107 -5 2 -39 52 -74 110 l-64 107 -44 0 c-33 0 -42 -3
-37 -12z"/>
<path d="M6310 2745 l0 -285 155 0 155 0 0 35 0 35 -115 0 -115 0 0 90 0 90
100 0 100 0 0 35 0 35 -100 0 -101 0 3 88 3 87 113 3 112 3 0 34 0 35 -155 0
-155 0 0 -285z"/>
<path d="M6890 2745 l0 -285 40 0 40 0 0 125 0 125 140 0 140 0 0 -125 0 -125
40 0 40 0 0 285 0 285 -40 0 -40 0 0 -125 0 -125 -140 0 -140 0 0 125 0 125
-40 0 -40 0 0 -285z"/>
<path d="M8055 3016 c-59 -26 -95 -85 -95 -153 0 -28 8 -44 38 -73 30 -31 57
-44 140 -69 57 -18 112 -41 122 -51 43 -43 33 -110 -20 -137 -14 -7 -47 -13
-75 -13 -61 0 -112 28 -128 71 -11 28 -15 30 -47 24 -48 -9 -50 -12 -39 -45
22 -63 126 -120 218 -120 142 0 238 116 186 223 -21 44 -68 72 -175 104 -107
32 -140 57 -140 107 0 95 178 115 228 26 15 -28 20 -30 52 -25 19 4 37 9 40
12 3 2 -5 21 -16 41 -33 56 -108 92 -193 92 -36 -1 -79 -7 -96 -14z"/>
<path d="M8640 2745 l0 -285 150 0 150 0 0 35 0 35 -110 0 -110 0 0 90 0 90
101 0 100 0 -3 33 -3 32 -97 3 -98 3 0 89 0 90 110 0 110 0 0 35 0 35 -150 0
-150 0 0 -285z"/>
<path d="M9152 3022 c2 -5 42 -72 91 -149 l87 -140 0 -136 0 -137 40 0 40 0 0
134 0 135 95 150 94 151 -42 0 -42 0 -65 -107 c-36 -59 -70 -108 -75 -110 -6
-1 -21 16 -34 40 -13 23 -43 72 -67 110 -42 65 -45 67 -85 67 -22 0 -39 -4
-37 -8z"/>
<path d="M9840 2745 l0 -285 155 0 155 0 0 35 0 35 -115 0 -115 0 0 90 0 90
100 0 100 0 0 35 0 35 -100 0 -100 0 0 90 0 90 116 0 115 0 -3 33 -3 32 -152
3 -153 3 0 -286z"/>
<path d="M10420 2745 l0 -287 138 4 c118 3 143 7 179 26 76 40 121 120 130
231 8 101 -16 173 -77 233 -60 58 -94 68 -247 75 l-123 6 0 -288z m277 191
c66 -34 106 -152 86 -251 -23 -110 -84 -154 -210 -155 l-73 0 0 216 0 217 83
-5 c47 -3 97 -13 114 -22z"/>
<path d="M11140 2745 l0 -285 40 0 40 0 0 285 0 285 -40 0 -40 0 0 -285z"/>
</g>
</svg>
